<svg width="36" height="31" viewBox="0 0 36 31" fill="none" xmlns="http://www.w3.org/2000/svg">
<path d="M20.5714 0C12.0514 0 5.14286 6.94056 5.14286 15.5H0L6.66857 22.1994L6.78857 22.4406L13.7143 15.5H8.57143C8.57143 8.835 13.9371 3.44444 20.5714 3.44444C27.2057 3.44444 32.5714 8.835 32.5714 15.5C32.5714 22.165 27.2057 27.5556 20.5714 27.5556C17.2629 27.5556 14.2629 26.195 12.1029 24.0078L9.66857 26.4533C12.4629 29.2606 16.3029 31 20.5714 31C29.0914 31 36 24.0594 36 15.5C36 6.94056 29.0914 0 20.5714 0ZM18.8571 8.61111V17.2222L26.1943 21.5967L27.4286 19.5128L21.4286 15.9306V8.61111H18.8571Z" fill="black"/>
</svg>
