<svg width="12" height="19" viewBox="0 0 12 19" fill="none" xmlns="http://www.w3.org/2000/svg">
<path d="M6 0C2.68286 0 0 2.9735 0 6.65C0 8.303 0.428571 9.8515 1.20857 11.248C2.02286 12.711 3.09429 13.965 3.91714 15.428C4.32 16.1405 4.61143 16.8055 4.92 17.575C5.14286 18.0975 5.32286 19 6 19C6.67714 19 6.85714 18.0975 7.07143 17.575C7.38857 16.8055 7.67143 16.1405 8.07429 15.428C8.89714 13.9745 9.96857 12.7205 10.7829 11.248C11.5714 9.8515 12 8.303 12 6.65C12 2.9735 9.31714 0 6 0ZM6 9.2625C4.81714 9.2625 3.85714 8.1985 3.85714 6.8875C3.85714 5.5765 4.81714 4.5125 6 4.5125C7.18286 4.5125 8.14286 5.5765 8.14286 6.8875C8.14286 8.1985 7.18286 9.2625 6 9.2625Z" fill="#BCB1FF"/>
</svg>
