<svg width="29" height="33" viewBox="0 0 29 33" fill="none" xmlns="http://www.w3.org/2000/svg">
<path d="M25.7778 3.3H24.1667V0H20.9444V3.3H8.05556V0H4.83333V3.3H3.22222C1.43389 3.3 0 4.785 0 6.6V29.7C0 31.515 1.43389 33 3.22222 33H25.7778C27.55 33 29 31.515 29 29.7V6.6C29 4.785 27.55 3.3 25.7778 3.3ZM14.5 8.25C17.1744 8.25 19.3333 10.461 19.3333 13.2C19.3333 15.939 17.1744 18.15 14.5 18.15C11.8256 18.15 9.66667 15.939 9.66667 13.2C9.66667 10.461 11.8256 8.25 14.5 8.25ZM24.1667 28.05H4.83333V26.4C4.83333 23.1 11.2778 21.285 14.5 21.285C17.7222 21.285 24.1667 23.1 24.1667 26.4V28.05Z" fill="white"/>
</svg>
